<svg width="26" height="26" viewBox="0 0 26 26" fill="none" xmlns="http://www.w3.org/2000/svg">
<path d="M6.50003 7.58333C6.50003 8.17917 6.98753 8.66667 7.58336 8.66667H15.8059L6.18586 18.2867C6.08557 18.387 6.00601 18.506 5.95173 18.6371C5.89744 18.7681 5.86951 18.9086 5.86951 19.0504C5.86951 19.1923 5.89744 19.3327 5.95173 19.4638C6.00601 19.5948 6.08557 19.7139 6.18586 19.8142C6.28616 19.9145 6.40523 19.994 6.53627 20.0483C6.66732 20.1026 6.80777 20.1305 6.94961 20.1305C7.09145 20.1305 7.23191 20.1026 7.36295 20.0483C7.494 19.994 7.61307 19.9145 7.71336 19.8142L17.3334 10.1942V18.4167C17.3334 19.0125 17.8209 19.5 18.4167 19.5C19.0125 19.5 19.5 19.0125 19.5 18.4167V7.58333C19.5 6.9875 19.0125 6.5 18.4167 6.5H7.58336C6.98753 6.5 6.50003 6.9875 6.50003 7.58333Z" fill="#F5F5FA"/>
</svg>
