<svg width="64" height="18" viewBox="0 0 64 18" fill="none" xmlns="http://www.w3.org/2000/svg">
<g clip-path="url(#clip0_483_2246)">
<path d="M9 17.9911C13.9236 17.9911 18 13.9079 18 8.99556C18 4.07447 13.9148 0 8.99119 0C4.07648 0 0 4.07447 0 8.99556C0 13.9079 4.0853 17.9911 9 17.9911ZM9 16.4919C4.83531 16.4919 1.50883 13.1583 1.50883 8.99556C1.50883 4.83292 4.82648 1.49926 8.99119 1.49926C13.1559 1.49926 16.5001 4.83292 16.5001 8.99556C16.5001 13.1583 13.1648 16.4919 9 16.4919Z" fill="#A6A6A9"/>
<path d="M3.95288 12.5056H8.75289C9.29109 12.5056 9.5029 12.2939 9.5029 11.9059C9.5029 10.4419 7.97645 9.29542 6.35288 9.29542C4.72935 9.29542 3.20288 10.4419 3.20288 11.9059C3.20288 12.2939 3.41465 12.5056 3.95288 12.5056ZM6.35288 8.63398C7.15583 8.63398 7.84409 7.91076 7.84409 6.97594C7.84409 6.05875 7.15583 5.37085 6.35288 5.37085C5.55876 5.37085 4.85288 6.07639 4.85288 6.98476C4.85288 7.91076 5.54994 8.63398 6.35288 8.63398Z" fill="#A6A6A9"/>
<path d="M8.60301 13.1318H13.9942C15.1501 13.1318 15.5383 12.5586 15.5383 11.9324C15.5383 10.4861 13.8795 8.6781 11.303 8.6781C8.72649 8.6781 7.05005 10.4773 7.05005 11.9324C7.05005 12.4175 7.29711 13.1318 8.60301 13.1318Z" fill="#151417"/>
<path d="M8.60301 12.5056H13.9942C14.6736 12.5056 14.9118 12.3116 14.9118 11.9324C14.9118 10.8299 13.5265 9.30423 11.303 9.30423C9.07066 9.30423 7.67651 10.8299 7.67651 11.9324C7.67651 12.3116 7.92355 12.5056 8.60301 12.5056ZM11.303 8.54579C12.2295 8.54579 13.0148 7.70795 13.0148 6.632C13.0148 5.5737 12.2207 4.79761 11.303 4.79761C10.3765 4.79761 9.58244 5.60016 9.58244 6.64082C9.58244 7.70795 10.3765 8.54579 11.303 8.54579Z" fill="#A6A6A9"/>
</g>
<path d="M28.6719 5.64844H28.625L25.7109 7.69531V5.79688L28.6562 3.72656H30.6484V15H28.6719V5.64844ZM41.3203 15H39.1875L36.1562 6.46094H38.2266L40.25 13.1719H40.2891L42.3047 6.46094H44.3359L41.3203 15ZM45.0938 8.92969C45.0938 8.15365 45.4089 7.52865 46.0391 7.05469C46.6693 6.58073 47.4974 6.34375 48.5234 6.34375C49.5078 6.34375 50.3125 6.58594 50.9375 7.07031C51.5625 7.54948 51.8854 8.17708 51.9062 8.95312H50.0938C50.0625 8.59375 49.9036 8.30729 49.6172 8.09375C49.3255 7.88542 48.9479 7.78125 48.4844 7.78125C48.0312 7.78125 47.6693 7.875 47.3984 8.0625C47.1224 8.25521 46.9844 8.50781 46.9844 8.82031C46.9844 9.29427 47.3984 9.6276 48.2266 9.82031L49.7266 10.1641C50.5859 10.362 51.1979 10.638 51.5625 10.9922C51.9219 11.3464 52.1016 11.8385 52.1016 12.4688C52.1016 13.2604 51.7656 13.901 51.0938 14.3906C50.4219 14.8802 49.5495 15.125 48.4766 15.125C47.4349 15.125 46.5885 14.8828 45.9375 14.3984C45.2917 13.9193 44.9375 13.2812 44.875 12.4844H46.7891C46.9089 13.2865 47.4974 13.6875 48.5547 13.6875C49.0495 13.6875 49.4427 13.5938 49.7344 13.4062C50.0208 13.224 50.1641 12.974 50.1641 12.6562C50.1641 12.4062 50.0755 12.2083 49.8984 12.0625C49.7266 11.9115 49.4271 11.7865 49 11.6875L47.4531 11.3125C45.8802 10.9427 45.0938 10.1484 45.0938 8.92969ZM59.8281 5.64844H59.7812L56.8672 7.69531V5.79688L59.8125 3.72656H61.8047V15H59.8281V5.64844Z" fill="#686766"/>
<defs>
<clipPath id="clip0_483_2246">
<rect width="18" height="18" fill="white"/>
</clipPath>
</defs>
</svg>
