<svg width="118" height="102" viewBox="0 0 118 102" fill="none" xmlns="http://www.w3.org/2000/svg">
<path d="M16.4457 94.1411H69.0298C79.9238 94.1411 85.4755 88.6094 85.4755 77.6531V23.8278C85.4755 12.8712 79.9238 7.33978 69.0298 7.33978H16.4457C5.49938 7.33978 3.43323e-05 12.8712 3.43323e-05 23.8278V77.6531C3.43323e-05 88.6094 5.49938 94.1411 16.4457 94.1411Z" fill="url(#paint0_linear_561_247)"/>
<path d="M41.8474 126H94.4316C109.306 126 118 117.277 118 102.279V48.4534C118 33.4546 109.306 24.7319 94.4316 24.7319H41.8474C26.973 24.7319 18.2788 33.4015 18.2788 48.4534V102.279C18.2788 117.277 26.973 126 41.8474 126Z" fill="url(#paint1_linear_561_247)"/>
<path d="M41.8474 118.767H94.4316C105.326 118.767 110.877 113.235 110.877 102.279V48.4535C110.877 37.4968 105.326 31.9654 94.4316 31.9654H41.8474C30.9011 31.9654 25.4018 37.4437 25.4018 48.4535V102.279C25.4018 113.235 30.9011 118.767 41.8474 118.767Z" fill="#151417"/>
<path d="M46.9801 61.6972C42.7378 61.6436 39.3334 58.2397 39.3334 53.8785C39.3334 49.6235 42.7378 46.1665 46.9801 46.1665C51.17 46.1665 54.627 49.6235 54.627 53.8785C54.627 58.2397 51.17 61.8034 46.9801 61.6972ZM89.2468 61.6972C85.0563 61.6436 81.5998 58.2397 81.5998 53.8785C81.5998 49.6235 85.0563 46.1665 89.2468 46.1665C93.4363 46.1665 96.8933 49.6235 96.8933 53.8785C96.8933 58.2397 93.4363 61.8034 89.2468 61.6972ZM68.0873 83.2375C63.8973 83.2375 60.493 79.7273 60.493 75.3662C60.493 71.1112 63.8973 67.7073 68.0873 67.7073C72.2772 67.7073 75.7338 71.1112 75.7338 75.3662C75.7338 79.7273 72.2772 83.2375 68.0873 83.2375ZM46.9801 104.725C42.7378 104.725 39.3858 101.215 39.3858 96.907C39.3858 92.5984 42.7378 89.1945 46.9801 89.1945C51.17 89.1945 54.5743 92.5984 54.5743 96.907C54.5743 101.215 51.17 104.725 46.9801 104.725ZM89.2468 104.725C85.0563 104.725 81.6521 101.215 81.6521 96.907C81.6521 92.5984 85.0563 89.1945 89.2468 89.1945C93.4363 89.1945 96.8933 92.5984 96.8933 96.907C96.8933 101.215 93.4363 104.725 89.2468 104.725Z" fill="url(#paint2_linear_561_247)"/>
<defs>
<linearGradient id="paint0_linear_561_247" x1="3.43323e-05" y1="50.7404" x2="85.4755" y2="50.7404" gradientUnits="userSpaceOnUse">
<stop stop-color="#6A85B6"/>
<stop offset="1" stop-color="#BAC8E0"/>
</linearGradient>
<linearGradient id="paint1_linear_561_247" x1="18.2788" y1="75.366" x2="118" y2="75.366" gradientUnits="userSpaceOnUse">
<stop stop-color="#6A85B6"/>
<stop offset="1" stop-color="#BAC8E0"/>
</linearGradient>
<linearGradient id="paint2_linear_561_247" x1="39.3334" y1="75.4458" x2="96.8933" y2="75.4458" gradientUnits="userSpaceOnUse">
<stop stop-color="#6A85B6"/>
<stop offset="1" stop-color="#BAC8E0"/>
</linearGradient>
</defs>
</svg>
