<svg width="139" height="36" viewBox="0 0 139 36" fill="none" xmlns="http://www.w3.org/2000/svg">
<path d="M23.625 21C23.625 25.7635 19.7635 29.625 15 29.625C10.2365 29.625 6.375 25.7635 6.375 21C6.375 16.2365 10.2365 12.375 15 12.375C19.7635 12.375 23.625 16.2365 23.625 21ZM10.515 21C10.515 23.477 12.523 25.485 15 25.485C17.477 25.485 19.485 23.477 19.485 21C19.485 18.523 17.477 16.515 15 16.515C12.523 16.515 10.515 18.523 10.515 21Z" fill="url(#paint0_linear_756_2606)"/>
<path d="M23.9626 12.0374C24.8705 11.1295 26.3601 11.1208 27.117 12.1581C28.8852 14.5811 29.8973 17.4952 29.9926 20.5288C30.1124 24.3422 28.7747 28.0578 26.2517 30.9197C23.7286 33.7815 20.2099 35.5744 16.4116 35.9334C12.6134 36.2925 8.821 35.1907 5.8064 32.8523C2.79179 30.514 0.781505 27.1148 0.184675 23.3465C-0.412155 19.5783 0.449328 15.7242 2.59379 12.5688C4.73825 9.41327 8.00453 7.19351 11.7278 6.36125C14.6899 5.69915 17.7641 5.95476 20.5508 7.06478C21.7437 7.53995 22.1057 8.98485 21.4521 10.0901C20.7985 11.1953 19.3748 11.5325 18.1517 11.1415C16.415 10.5863 14.5484 10.4955 12.7422 10.8993C10.1731 11.4735 7.91939 13.0052 6.43972 15.1824C4.96004 17.3597 4.36561 20.019 4.77743 22.6191C5.18924 25.2192 6.57634 27.5646 8.65641 29.1781C10.7365 30.7916 13.3532 31.5518 15.974 31.3041C18.5948 31.0563 21.0228 29.8192 22.7637 27.8446C24.5045 25.8699 25.4276 23.3061 25.3449 20.6749C25.2868 18.8251 24.7346 17.0397 23.765 15.4956C23.0821 14.4082 23.0546 12.9454 23.9626 12.0374Z" fill="url(#paint1_linear_756_2606)"/>
<path d="M52.6074 18.4316C52.4199 17.377 51.9453 16.5332 51.1836 15.9004C50.3633 15.2207 49.3203 14.8809 48.0547 14.8809C46.5078 14.8809 45.2715 15.4727 44.3457 16.6562C43.4082 17.8633 42.9395 19.4629 42.9395 21.4551C42.9395 23.4941 43.4141 25.1055 44.3633 26.2891C45.2891 27.4492 46.5254 28.0293 48.0723 28.0293C50.6504 28.0293 52.1738 26.8809 52.6426 24.584H56.2812C56.0586 26.5879 55.209 28.1934 53.7324 29.4004C52.2324 30.6191 50.3398 31.2285 48.0547 31.2285C45.3359 31.2285 43.1621 30.3555 41.5332 28.6094C39.8926 26.8398 39.0723 24.4551 39.0723 21.4551C39.0723 18.4902 39.8867 16.1172 41.5156 14.3359C43.1445 12.5547 45.3125 11.6641 48.0195 11.6641C50.375 11.6641 52.3145 12.332 53.8379 13.668C55.2676 14.9219 56.0703 16.5098 56.2461 18.4316H52.6074ZM67.2676 31.2285C64.502 31.2285 62.3047 30.3496 60.6758 28.5918C59.0469 26.834 58.2324 24.4551 58.2324 21.4551C58.2324 18.4668 59.0527 16.0879 60.6934 14.3184C62.3223 12.5488 64.5137 11.6641 67.2676 11.6641C70.0215 11.6641 72.2129 12.543 73.8418 14.3008C75.4707 16.0703 76.2852 18.4551 76.2852 21.4551C76.2852 24.4551 75.4707 26.834 73.8418 28.5918C72.2246 30.3496 70.0332 31.2285 67.2676 31.2285ZM67.2676 28.0645C68.8848 28.0645 70.1504 27.4844 71.0645 26.3242C71.9668 25.1641 72.418 23.541 72.418 21.4551C72.418 19.3691 71.9668 17.7461 71.0645 16.5859C70.1504 15.4141 68.8848 14.8281 67.2676 14.8281C65.6504 14.8281 64.3848 15.4141 63.4707 16.5859C62.5566 17.7578 62.0996 19.3809 62.0996 21.4551C62.0996 23.5293 62.5566 25.1523 63.4707 26.3242C64.3848 27.4844 65.6504 28.0645 67.2676 28.0645ZM86.5332 31.1934C84.1309 31.1934 82.1914 30.3027 80.7148 28.5215C79.2266 26.7402 78.4824 24.3789 78.4824 21.4375C78.4824 18.5195 79.2266 16.1641 80.7148 14.3711C82.1914 12.6016 84.1191 11.7168 86.498 11.7168C89.3457 11.7168 91.3496 12.8359 92.5098 15.0742H92.5977V4.49219H96.3945V31H92.7031V27.7656H92.6328C91.4492 30.0508 89.416 31.1934 86.5332 31.1934ZM87.5 14.9512C85.9648 14.9512 84.7285 15.543 83.791 16.7266C82.8535 17.9102 82.3848 19.4863 82.3848 21.4551C82.3848 23.4355 82.8535 25.0117 83.791 26.1836C84.7168 27.3672 85.9531 27.959 87.5 27.959C89.0352 27.959 90.2715 27.3613 91.209 26.166C92.1465 24.9707 92.6152 23.4004 92.6152 21.4551C92.6152 19.5098 92.1465 17.9395 91.209 16.7441C90.2598 15.5488 89.0234 14.9512 87.5 14.9512ZM100.596 4.49219H104.41V31H100.596V4.49219ZM116.434 14.7754C115.062 14.7754 113.926 15.2324 113.023 16.1465C112.109 17.0605 111.6 18.25 111.494 19.7148H121.18C121.133 18.2266 120.676 17.0312 119.809 16.1289C118.941 15.2266 117.816 14.7754 116.434 14.7754ZM124.801 25.4102C124.531 27.1211 123.635 28.5215 122.111 29.6113C120.588 30.6895 118.754 31.2285 116.609 31.2285C113.844 31.2285 111.652 30.3555 110.035 28.6094C108.43 26.875 107.627 24.5137 107.627 21.5254C107.627 18.5371 108.43 16.1465 110.035 14.3535C111.641 12.5605 113.779 11.6641 116.451 11.6641C119.076 11.6641 121.156 12.5137 122.691 14.2129C124.227 15.9004 124.994 18.1914 124.994 21.0859V22.4219H111.477V22.6504C111.477 24.3027 111.951 25.627 112.9 26.623C113.85 27.6309 115.109 28.1348 116.68 28.1348C117.793 28.1348 118.754 27.8887 119.562 27.3965C120.371 26.9043 120.904 26.2422 121.162 25.4102H124.801ZM128.07 11.9102H131.709V15.127H131.779C132.072 14.0605 132.635 13.2285 133.467 12.6309C134.287 12.0215 135.26 11.7168 136.385 11.7168C136.912 11.7168 137.334 11.7637 137.65 11.8574V15.4258C137.229 15.2617 136.672 15.1797 135.98 15.1797C134.727 15.1797 133.73 15.584 132.992 16.3926C132.254 17.1895 131.885 18.2617 131.885 19.6094V31H128.07V11.9102Z" fill="url(#paint2_linear_756_2606)"/>
<defs>
<linearGradient id="paint0_linear_756_2606" x1="4.74434" y1="7.8334" x2="24.6223" y2="29.4633" gradientUnits="userSpaceOnUse">
<stop stop-color="#BF74FA"/>
<stop offset="1" stop-color="#7E20F6"/>
</linearGradient>
<linearGradient id="paint1_linear_756_2606" x1="-2.83594" y1="-1.89844" x2="31.7344" y2="35.7187" gradientUnits="userSpaceOnUse">
<stop stop-color="#BF74FA"/>
<stop offset="1" stop-color="#7E20F6"/>
</linearGradient>
<linearGradient id="paint2_linear_756_2606" x1="28.4523" y1="-9.47812" x2="53.0841" y2="65.7183" gradientUnits="userSpaceOnUse">
<stop stop-color="#BF74FA"/>
<stop offset="1" stop-color="#7E20F6"/>
</linearGradient>
</defs>
</svg>
