<svg width="88" height="88" viewBox="0 0 88 88" fill="none" xmlns="http://www.w3.org/2000/svg">
<path d="M69.2999 44.0002C69.2999 57.973 57.9728 69.3002 44 69.3002C30.0271 69.3002 18.7 57.973 18.7 44.0002C18.7 30.0274 30.0271 18.7002 44 18.7002C57.9728 18.7002 69.2999 30.0274 69.2999 44.0002ZM30.844 44.0002C30.844 51.266 36.7341 57.1562 44 57.1562C51.2658 57.1562 57.1559 51.266 57.1559 44.0002C57.1559 36.7343 51.2658 30.8442 44 30.8442C36.7341 30.8442 30.844 36.7343 30.844 44.0002Z" fill="url(#paint0_linear_756_2570)"/>
<path d="M70.2902 17.7098C72.9536 15.0464 77.3229 15.021 79.5432 18.0636C84.7298 25.1713 87.6986 33.7192 87.9783 42.6179C88.3298 53.8037 84.4058 64.703 77.0049 73.0977C69.604 81.4924 59.2824 86.7515 48.1408 87.8047C36.9992 88.8579 25.8749 85.626 17.0321 78.7668C8.18926 71.9076 2.29241 61.9366 0.541714 50.8831C-1.20899 39.8296 1.31803 28.5244 7.60845 19.2683C13.8989 10.0123 23.4799 3.50096 34.4017 1.05966C43.0904 -0.882486 52.108 -0.13269 60.2823 3.12335C63.7815 4.51719 64.8435 8.75555 62.9262 11.9976C61.0088 15.2397 56.8327 16.2287 53.245 15.0818C48.1507 13.4532 42.6753 13.1869 37.3772 14.3712C29.8412 16.0557 23.2302 20.5485 18.8898 26.9352C14.5494 33.3218 12.8058 41.1225 14.0138 48.7494C15.2218 56.3763 19.2906 63.2563 25.3921 67.9891C31.4937 72.722 39.1694 74.952 46.8571 74.2253C54.5448 73.4986 61.6667 69.8698 66.7734 64.0774C71.88 58.2851 74.5876 50.7645 74.345 43.0464C74.1745 37.6202 72.5548 32.3831 69.7106 27.8538C67.7075 24.664 67.6269 20.3731 70.2902 17.7098Z" fill="url(#paint1_linear_756_2570)"/>
<defs>
<linearGradient id="paint0_linear_756_2570" x1="13.9167" y1="5.37813" x2="72.2253" y2="68.8258" gradientUnits="userSpaceOnUse">
<stop stop-color="#BF74FA"/>
<stop offset="1" stop-color="#7E20F6"/>
</linearGradient>
<linearGradient id="paint1_linear_756_2570" x1="-8.31875" y1="-23.1687" x2="93.0875" y2="87.175" gradientUnits="userSpaceOnUse">
<stop stop-color="#BF74FA"/>
<stop offset="1" stop-color="#7E20F6"/>
</linearGradient>
</defs>
</svg>
