<svg width="138" height="80" viewBox="0 0 138 80" fill="none" xmlns="http://www.w3.org/2000/svg">
<path d="M8.08221 71.4083C12.6925 71.4083 16.2213 67.8916 16.2213 63.4113V20.532C16.2213 15.9946 12.6925 12.4213 8.08221 12.4213C3.52886 12.4213 0 15.9946 0 20.532V63.4113C0 67.8916 3.52886 71.4083 8.08221 71.4083ZM35.1178 83.9434C42.6878 83.9434 47.9811 78.8953 47.9811 71.7486V12.2512C47.9811 5.04794 42.6878 0 35.1178 0C27.6048 0 22.3115 5.04794 22.3115 12.2512V71.7486C22.3115 78.8953 27.6048 83.9434 35.1178 83.9434ZM54.5836 52.9182H89.9288V31.0249H54.5836V52.9182ZM109.394 83.9434C116.964 83.9434 122.258 78.8953 122.258 71.7486V12.2512C122.258 5.04794 116.964 0 109.394 0C101.882 0 96.5882 5.04794 96.5882 12.2512V71.7486C96.5882 78.8953 101.882 83.9434 109.394 83.9434ZM135.861 71.4083C140.415 71.4083 144 67.8916 144 63.4113V20.532C144 15.9946 140.415 12.4213 135.861 12.4213C131.308 12.4213 127.779 15.9946 127.779 20.532V63.4113C127.779 67.8916 131.308 71.4083 135.861 71.4083Z" fill="url(#paint0_linear_558_152)"/>
<defs>
<linearGradient id="paint0_linear_558_152" x1="0" y1="41.9717" x2="144" y2="41.9717" gradientUnits="userSpaceOnUse">
<stop stop-color="#BDBBBE"/>
<stop offset="1" stop-color="#9D9EA3"/>
</linearGradient>
</defs>
</svg>
