<svg width="319" height="80" viewBox="0 0 319 80" fill="none" xmlns="http://www.w3.org/2000/svg">
<rect x="1" y="1" width="317" height="78" rx="23" fill="#200F35"/>
<path d="M79.7363 55V43.0371H75.459V40.9082H86.5332V43.0371H82.2559V55H79.7363ZM97.6172 55V48.8867H90.7617V55H88.2422V40.9082H90.7617V46.7676H97.6172V40.9082H100.127V55H97.6172ZM111.738 55H102.617V40.9082H111.738V43.0371H105.137V46.8457H111.377V48.8477H105.137V52.8711H111.738V55ZM124.473 55.2344C122.454 55.2344 120.859 54.5866 119.688 53.291C118.509 51.9824 117.92 50.2018 117.92 47.9492C117.92 45.7096 118.512 43.9355 119.697 42.627C120.876 41.3249 122.467 40.6738 124.473 40.6738C126.113 40.6738 127.497 41.1393 128.623 42.0703C129.749 43.0078 130.391 44.2318 130.547 45.7422H128.066C127.904 44.8568 127.49 44.1471 126.826 43.6133C126.169 43.0794 125.384 42.8125 124.473 42.8125C123.262 42.8125 122.298 43.2747 121.582 44.1992C120.859 45.1302 120.498 46.3802 120.498 47.9492C120.498 49.5312 120.856 50.7845 121.572 51.709C122.288 52.6335 123.258 53.0957 124.482 53.0957C125.413 53.0957 126.198 52.8581 126.836 52.3828C127.467 51.901 127.881 51.237 128.076 50.3906H130.547C130.326 51.901 129.674 53.0859 128.594 53.9453C127.513 54.8047 126.139 55.2344 124.473 55.2344ZM138.672 40.6738C140.723 40.6738 142.35 41.3281 143.555 42.6367C144.753 43.9453 145.352 45.7194 145.352 47.959C145.352 50.1986 144.753 51.9727 143.555 53.2812C142.35 54.5833 140.723 55.2344 138.672 55.2344C136.615 55.2344 134.987 54.5833 133.789 53.2812C132.585 51.9727 131.982 50.1986 131.982 47.959C131.982 45.7194 132.585 43.9453 133.789 42.6367C134.987 41.3281 136.615 40.6738 138.672 40.6738ZM138.672 42.8223C137.415 42.8223 136.416 43.2845 135.674 44.209C134.932 45.1335 134.561 46.3835 134.561 47.959C134.561 49.528 134.932 50.7747 135.674 51.6992C136.416 52.6237 137.415 53.0859 138.672 53.0859C139.928 53.0859 140.928 52.6237 141.67 51.6992C142.412 50.7747 142.783 49.528 142.783 47.959C142.783 46.39 142.412 45.14 141.67 44.209C140.928 43.2845 139.928 42.8223 138.672 42.8223ZM152.578 40.9082C154.688 40.9082 156.331 41.5202 157.51 42.7441C158.688 43.9681 159.277 45.6934 159.277 47.9199C159.277 50.153 158.688 51.8913 157.51 53.1348C156.331 54.3783 154.688 55 152.578 55H147.363V40.9082H152.578ZM149.883 52.8711H152.314C153.734 52.8711 154.821 52.4479 155.576 51.6016C156.331 50.7552 156.709 49.5312 156.709 47.9297C156.709 46.3542 156.328 45.1432 155.566 44.2969C154.805 43.457 153.721 43.0371 152.314 43.0371H149.883V52.8711ZM170.391 55H161.27V40.9082H170.391V43.0371H163.789V46.8457H170.029V48.8477H163.789V52.8711H170.391V55ZM172.578 55V40.9082H181.562V43.0371H175.098V47.1973H181.006V49.248H175.098V55H172.578ZM190.43 51.3574H185.244L184.043 55H181.445L186.445 40.9082H189.287L194.287 55H191.631L190.43 51.3574ZM185.83 49.4141H189.834L187.871 43.3984H187.803L185.83 49.4141ZM197.373 55V43.0371H193.096V40.9082H204.17V43.0371H199.893V55H197.373ZM215.254 55V48.8867H208.398V55H205.879V40.9082H208.398V46.7676H215.254V40.9082H217.764V55H215.254ZM229.375 55H220.254V40.9082H229.375V43.0371H222.773V46.8457H229.014V48.8477H222.773V52.8711H229.375V55ZM234.082 47.7637H236.992C237.793 47.7637 238.415 47.5521 238.857 47.1289C239.294 46.7057 239.512 46.1133 239.512 45.3516C239.512 44.6094 239.284 44.0234 238.828 43.5938C238.366 43.1641 237.734 42.9492 236.934 42.9492H234.082V47.7637ZM234.082 55H231.562V40.9082H237.227C238.743 40.9082 239.938 41.3021 240.811 42.0898C241.67 42.8711 242.1 43.9388 242.1 45.293C242.1 46.237 241.868 47.0638 241.406 47.7734C240.931 48.5026 240.277 49.0169 239.443 49.3164L242.52 55H239.639L236.875 49.6973H234.082V55Z" fill="#8E48EA"/>
<path d="M120.685 26.1855C120.612 27.3613 120.386 28.1725 120.008 28.6191V28.6738H124.52V21.4551H120.985L120.685 26.1855ZM118.928 31.9482H117.52V28.6738H118.237C118.843 28.3229 119.185 27.4707 119.263 26.1172L119.625 20.1357H126.051V28.6738H127.281V31.9482H125.88V30H118.928V31.9482ZM131.656 30.0889C130.581 30.0889 129.726 29.7471 129.093 29.0635C128.459 28.3799 128.143 27.4548 128.143 26.2881C128.143 25.126 128.462 24.2008 129.1 23.5127C129.733 22.8245 130.585 22.4805 131.656 22.4805C132.727 22.4805 133.579 22.8223 134.213 23.5059C134.846 24.194 135.163 25.1214 135.163 26.2881C135.163 27.4548 134.846 28.3799 134.213 29.0635C133.584 29.7471 132.732 30.0889 131.656 30.0889ZM131.656 28.8584C132.285 28.8584 132.777 28.6328 133.133 28.1816C133.484 27.7305 133.659 27.0993 133.659 26.2881C133.659 25.4769 133.484 24.8457 133.133 24.3945C132.777 23.9388 132.285 23.7109 131.656 23.7109C131.027 23.7109 130.535 23.9388 130.18 24.3945C129.824 24.8503 129.646 25.4814 129.646 26.2881C129.646 27.0947 129.824 27.7259 130.18 28.1816C130.535 28.6328 131.027 28.8584 131.656 28.8584ZM141.391 24.9414C141.295 24.5768 141.101 24.2874 140.81 24.0732C140.5 23.8454 140.117 23.7314 139.661 23.7314C139.06 23.7314 138.579 23.9616 138.219 24.4219C137.854 24.8913 137.672 25.5133 137.672 26.2881C137.672 27.0811 137.856 27.7077 138.226 28.168C138.586 28.6191 139.066 28.8447 139.668 28.8447C140.598 28.8447 141.176 28.4482 141.404 27.6553H142.833C142.719 28.389 142.377 28.9769 141.808 29.4189C141.233 29.8656 140.518 30.0889 139.661 30.0889C138.604 30.0889 137.761 29.7493 137.132 29.0703C136.494 28.3867 136.175 27.4593 136.175 26.2881C136.175 25.1351 136.492 24.2122 137.125 23.5195C137.758 22.8268 138.599 22.4805 139.647 22.4805C140.522 22.4805 141.252 22.722 141.835 23.2051C142.386 23.6562 142.715 24.235 142.819 24.9414H141.391ZM149.58 23.752H147.235V30H145.772V23.752H143.428V22.5762H149.58V23.752ZM150.694 30V22.5762H152.15V27.8262H152.205L155.753 22.5762H157.209V30H155.753V24.7295H155.698L152.15 30H150.694ZM168.953 30H167.114L164.339 26.5479H164.284V30H162.828V26.5479H162.773L159.998 30H158.187L161.365 26.0898L158.262 22.5762H160.032L162.773 25.7686H162.828V22.5762H164.284V25.7686H164.339L167.08 22.5762H168.837L165.747 26.0693L168.953 30ZM172.843 23.6904C172.31 23.6904 171.868 23.8682 171.517 24.2236C171.161 24.5791 170.963 25.0417 170.922 25.6113H174.688C174.67 25.0326 174.493 24.5677 174.155 24.2168C173.818 23.8659 173.381 23.6904 172.843 23.6904ZM176.097 27.8262C175.992 28.4915 175.643 29.0361 175.051 29.46C174.458 29.8792 173.745 30.0889 172.911 30.0889C171.836 30.0889 170.983 29.7493 170.354 29.0703C169.73 28.3958 169.418 27.4775 169.418 26.3154C169.418 25.1533 169.73 24.2236 170.354 23.5264C170.979 22.8291 171.811 22.4805 172.85 22.4805C173.87 22.4805 174.679 22.8109 175.276 23.4717C175.873 24.1279 176.172 25.0189 176.172 26.1445V26.6641H170.915V26.7529C170.915 27.3955 171.1 27.9105 171.469 28.2979C171.838 28.6898 172.328 28.8857 172.938 28.8857C173.371 28.8857 173.745 28.79 174.06 28.5986C174.374 28.4072 174.581 28.1497 174.682 27.8262H176.097ZM182.44 26.7461H178.961V30H177.491V22.5762H178.961V25.5703H182.44V22.5762H183.91V30H182.44V26.7461ZM185.571 30V22.5762H187.027V27.8262H187.082L190.63 22.5762H192.086V30H190.63V24.7295H190.575L187.027 30H185.571ZM196.837 23.6904C196.304 23.6904 195.862 23.8682 195.511 24.2236C195.155 24.5791 194.957 25.0417 194.916 25.6113H198.683C198.664 25.0326 198.487 24.5677 198.149 24.2168C197.812 23.8659 197.375 23.6904 196.837 23.6904ZM200.091 27.8262C199.986 28.4915 199.637 29.0361 199.045 29.46C198.452 29.8792 197.739 30.0889 196.905 30.0889C195.83 30.0889 194.978 29.7493 194.349 29.0703C193.724 28.3958 193.412 27.4775 193.412 26.3154C193.412 25.1533 193.724 24.2236 194.349 23.5264C194.973 22.8291 195.805 22.4805 196.844 22.4805C197.865 22.4805 198.674 22.8109 199.271 23.4717C199.868 24.1279 200.166 25.0189 200.166 26.1445V26.6641H194.909V26.7529C194.909 27.3955 195.094 27.9105 195.463 28.2979C195.832 28.6898 196.322 28.8857 196.933 28.8857C197.366 28.8857 197.739 28.79 198.054 28.5986C198.368 28.4072 198.576 28.1497 198.676 27.8262H200.091Z" fill="#4C277D"/>
<rect x="1" y="1" width="317" height="78" rx="23" stroke="#8E48EA" stroke-width="2"/>
</svg>
