<svg width="76" height="18" viewBox="0 0 76 18" fill="none" xmlns="http://www.w3.org/2000/svg">
<g clip-path="url(#clip0_483_2256)">
<path d="M9 17.9911C13.9236 17.9911 18 13.9079 18 8.99556C18 4.07447 13.9148 0 8.99119 0C4.07648 0 0 4.07447 0 8.99556C0 13.9079 4.0853 17.9911 9 17.9911ZM9 16.4919C4.83531 16.4919 1.50883 13.1583 1.50883 8.99556C1.50883 4.83292 4.82648 1.49926 8.99119 1.49926C13.1559 1.49926 16.5001 4.83292 16.5001 8.99556C16.5001 13.1583 13.1648 16.4919 9 16.4919Z" fill="#A6A6A9"/>
<path d="M4.38522 9.94812H8.99111C9.33521 9.94812 9.60875 9.68351 9.60875 9.33071V3.3866C9.60875 3.04265 9.33521 2.77808 8.99111 2.77808C8.64702 2.77808 8.38228 3.04265 8.38228 3.3866V8.72218H4.38522C4.03228 8.72218 3.76758 8.98678 3.76758 9.33071C3.76758 9.68351 4.03228 9.94812 4.38522 9.94812Z" fill="#A6A6A9"/>
</g>
<path d="M28.4141 8.46094H29.7734C30.3516 8.46094 30.8203 8.29948 31.1797 7.97656C31.5391 7.65885 31.7188 7.2474 31.7188 6.74219C31.7188 6.24219 31.5521 5.84635 31.2188 5.55469C30.8698 5.2526 30.3854 5.10156 29.7656 5.10156C29.1875 5.10156 28.7135 5.25781 28.3438 5.57031C27.9844 5.88802 27.7839 6.3099 27.7422 6.83594H25.8672C25.9245 5.82031 26.3125 5.01042 27.0312 4.40625C27.7552 3.80208 28.6979 3.5 29.8594 3.5C30.974 3.5 31.8854 3.77604 32.5938 4.32812C33.3021 4.88021 33.6562 5.59375 33.6562 6.46875C33.6562 7.16146 33.4427 7.7474 33.0156 8.22656C32.5938 8.70052 32.0312 8.9974 31.3281 9.11719V9.16406C32.1771 9.22656 32.8516 9.5 33.3516 9.98438C33.8568 10.474 34.1094 11.1094 34.1094 11.8906C34.1094 12.8802 33.7057 13.6849 32.8984 14.3047C32.0964 14.9193 31.0755 15.2266 29.8359 15.2266C28.6068 15.2266 27.612 14.9167 26.8516 14.2969C26.1016 13.6823 25.7005 12.8698 25.6484 11.8594H27.5703C27.6172 12.3802 27.8411 12.7943 28.2422 13.1016C28.6536 13.4193 29.1901 13.5781 29.8516 13.5781C30.5026 13.5781 31.0339 13.4141 31.4453 13.0859C31.8568 12.7578 32.0625 12.3333 32.0625 11.8125C32.0625 11.2448 31.862 10.7969 31.4609 10.4688C31.0547 10.1406 30.5026 9.97656 29.8047 9.97656H28.4141V8.46094ZM39.9062 15.2266C38.5312 15.2266 37.4505 14.7005 36.6641 13.6484C35.8828 12.6016 35.4922 11.1693 35.4922 9.35156C35.4922 7.54427 35.8854 6.11979 36.6719 5.07812C37.4583 4.02604 38.5365 3.5 39.9062 3.5C41.276 3.5 42.3516 4.02344 43.1328 5.07031C43.9141 6.11198 44.3047 7.53646 44.3047 9.34375C44.3047 11.1562 43.9167 12.5885 43.1406 13.6406C42.3542 14.6979 41.276 15.2266 39.9062 15.2266ZM39.9062 13.5781C40.651 13.5781 41.2318 13.2057 41.6484 12.4609C42.0599 11.7161 42.2656 10.6797 42.2656 9.35156C42.2656 8.03385 42.0573 7.00521 41.6406 6.26562C41.224 5.52083 40.6458 5.14844 39.9062 5.14844C39.1667 5.14844 38.5833 5.52083 38.1562 6.26562C37.7344 7.01042 37.5234 8.03646 37.5234 9.34375C37.5234 10.6719 37.7344 11.7083 38.1562 12.4531C38.5729 13.2031 39.1562 13.5781 39.9062 13.5781ZM49.3828 6.46094H51.25V7.96094H51.2891C51.4766 7.46615 51.7891 7.07552 52.2266 6.78906C52.6589 6.5026 53.1562 6.35938 53.7188 6.35938C54.3229 6.35938 54.8307 6.50521 55.2422 6.79688C55.6589 7.09375 55.9479 7.51302 56.1094 8.05469H56.1484C56.3568 7.53385 56.7005 7.11979 57.1797 6.8125C57.6536 6.51042 58.1979 6.35938 58.8125 6.35938C59.651 6.35938 60.3255 6.61719 60.8359 7.13281C61.3464 7.64844 61.6016 8.33333 61.6016 9.1875V15H59.6562V9.66406C59.6562 9.13281 59.5208 8.72135 59.25 8.42969C58.9792 8.14323 58.5938 8 58.0938 8C57.6042 8 57.2057 8.16406 56.8984 8.49219C56.5911 8.82031 56.4375 9.24479 56.4375 9.76562V15H54.5469V9.55469C54.5469 9.07552 54.4089 8.69531 54.1328 8.41406C53.8568 8.13802 53.4818 8 53.0078 8C52.5182 8 52.1146 8.16927 51.7969 8.50781C51.4844 8.85156 51.3281 9.28646 51.3281 9.8125V15H49.3828V6.46094ZM63.2812 6.46094H65.2266V15H63.2812V6.46094ZM64.25 5.375C63.9479 5.375 63.6901 5.27083 63.4766 5.0625C63.263 4.85417 63.1562 4.60156 63.1562 4.30469C63.1562 4.0026 63.263 3.7474 63.4766 3.53906C63.6901 3.33594 63.9479 3.23438 64.25 3.23438C64.5573 3.23438 64.8151 3.33594 65.0234 3.53906C65.237 3.7474 65.3438 4.0026 65.3438 4.30469C65.3438 4.60677 65.237 4.85938 65.0234 5.0625C64.8151 5.27083 64.5573 5.375 64.25 5.375ZM66.9453 6.46094H68.8125V7.94531H68.8516C69.3672 6.88802 70.2865 6.35938 71.6094 6.35938C72.5573 6.35938 73.3021 6.64062 73.8438 7.20312C74.3854 7.76562 74.6562 8.54167 74.6562 9.53125V15H72.7109V9.91406C72.7109 9.30469 72.5521 8.83333 72.2344 8.5C71.9167 8.17188 71.4661 8.00781 70.8828 8.00781C70.2839 8.00781 69.8021 8.20052 69.4375 8.58594C69.0729 8.97135 68.8906 9.47656 68.8906 10.1016V15H66.9453V6.46094Z" fill="#686766"/>
<defs>
<clipPath id="clip0_483_2256">
<rect width="18" height="18" fill="white"/>
</clipPath>
</defs>
</svg>
