<svg width="347" height="53" viewBox="0 0 347 53" fill="none" xmlns="http://www.w3.org/2000/svg">
<rect width="346.2" height="53" rx="20" fill="white"/>
<path d="M106.82 23.9C106.713 22.8733 106.34 22.1333 105.7 21.68C105.073 21.2133 104.267 20.98 103.28 20.98C102.88 20.98 102.487 21.02 102.1 21.1C101.713 21.18 101.367 21.3133 101.06 21.5C100.767 21.6867 100.527 21.94 100.34 22.26C100.167 22.5667 100.08 22.9533 100.08 23.42C100.08 23.86 100.207 24.22 100.46 24.5C100.727 24.7667 101.073 24.9867 101.5 25.16C101.94 25.3333 102.433 25.48 102.98 25.6C103.527 25.7067 104.08 25.8267 104.64 25.96C105.213 26.0933 105.773 26.2533 106.32 26.44C106.867 26.6133 107.353 26.8533 107.78 27.16C108.22 27.4667 108.567 27.8533 108.82 28.32C109.087 28.7867 109.22 29.3733 109.22 30.08C109.22 30.84 109.047 31.4933 108.7 32.04C108.367 32.5733 107.933 33.0133 107.4 33.36C106.867 33.6933 106.267 33.9333 105.6 34.08C104.947 34.24 104.293 34.32 103.64 34.32C102.84 34.32 102.08 34.22 101.36 34.02C100.653 33.82 100.027 33.52 99.48 33.12C98.9467 32.7067 98.52 32.1867 98.2 31.56C97.8933 30.92 97.74 30.1667 97.74 29.3H99.54C99.54 29.9 99.6533 30.42 99.88 30.86C100.12 31.2867 100.427 31.64 100.8 31.92C101.187 32.2 101.633 32.4067 102.14 32.54C102.647 32.6733 103.167 32.74 103.7 32.74C104.127 32.74 104.553 32.7 104.98 32.62C105.42 32.54 105.813 32.4067 106.16 32.22C106.507 32.02 106.787 31.7533 107 31.42C107.213 31.0867 107.32 30.66 107.32 30.14C107.32 29.6467 107.187 29.2467 106.92 28.94C106.667 28.6333 106.32 28.3867 105.88 28.2C105.453 28 104.967 27.84 104.42 27.72C103.873 27.6 103.313 27.48 102.74 27.36C102.18 27.2267 101.627 27.08 101.08 26.92C100.533 26.7467 100.04 26.5267 99.6 26.26C99.1733 25.98 98.8267 25.6267 98.56 25.2C98.3067 24.76 98.18 24.2133 98.18 23.56C98.18 22.84 98.3267 22.22 98.62 21.7C98.9133 21.1667 99.3 20.7333 99.78 20.4C100.273 20.0533 100.827 19.8 101.44 19.64C102.067 19.4667 102.707 19.38 103.36 19.38C104.093 19.38 104.773 19.4667 105.4 19.64C106.027 19.8133 106.573 20.0867 107.04 20.46C107.52 20.8333 107.893 21.3067 108.16 21.88C108.44 22.44 108.593 23.1133 108.62 23.9H106.82ZM113.049 21.8H111.349V19.72H113.049V21.8ZM111.349 23.66H113.049V34H111.349V23.66ZM124.602 33.12C124.602 34.8133 124.216 36.08 123.442 36.92C122.669 37.76 121.456 38.18 119.802 38.18C119.322 38.18 118.829 38.1267 118.322 38.02C117.829 37.9133 117.376 37.74 116.962 37.5C116.562 37.26 116.229 36.9467 115.962 36.56C115.696 36.1733 115.549 35.7 115.522 35.14H117.222C117.236 35.4467 117.329 35.7067 117.502 35.92C117.689 36.1333 117.909 36.3067 118.162 36.44C118.429 36.5733 118.716 36.6667 119.022 36.72C119.329 36.7867 119.622 36.82 119.902 36.82C120.462 36.82 120.936 36.72 121.322 36.52C121.709 36.3333 122.029 36.0667 122.282 35.72C122.536 35.3867 122.716 34.98 122.822 34.5C122.942 34.02 123.002 33.4933 123.002 32.92V32.24H122.962C122.669 32.88 122.222 33.3533 121.622 33.66C121.036 33.9533 120.409 34.1 119.742 34.1C118.969 34.1 118.296 33.96 117.722 33.68C117.149 33.4 116.669 33.0267 116.282 32.56C115.896 32.08 115.602 31.5267 115.402 30.9C115.216 30.26 115.122 29.5867 115.122 28.88C115.122 28.2667 115.202 27.64 115.362 27C115.522 26.3467 115.789 25.76 116.162 25.24C116.536 24.7067 117.029 24.2733 117.642 23.94C118.256 23.5933 119.009 23.42 119.902 23.42C120.556 23.42 121.156 23.5667 121.702 23.86C122.249 24.14 122.676 24.5667 122.982 25.14H123.002V23.66H124.602V33.12ZM119.842 32.62C120.402 32.62 120.876 32.5067 121.262 32.28C121.662 32.04 121.982 31.7333 122.222 31.36C122.462 30.9733 122.636 30.54 122.742 30.06C122.862 29.58 122.922 29.1 122.922 28.62C122.922 28.1667 122.869 27.72 122.762 27.28C122.656 26.84 122.482 26.4467 122.242 26.1C122.016 25.74 121.716 25.4533 121.342 25.24C120.969 25.0267 120.516 24.92 119.982 24.92C119.436 24.92 118.969 25.0267 118.582 25.24C118.196 25.44 117.876 25.7133 117.622 26.06C117.382 26.4067 117.202 26.8067 117.082 27.26C116.976 27.7133 116.922 28.1867 116.922 28.68C116.922 29.1467 116.969 29.6133 117.062 30.08C117.156 30.5467 117.316 30.9733 117.542 31.36C117.769 31.7333 118.069 32.04 118.442 32.28C118.816 32.5067 119.282 32.62 119.842 32.62ZM127.167 23.66H128.767V25.3H128.807C129.513 24.0467 130.633 23.42 132.167 23.42C132.847 23.42 133.413 23.5133 133.867 23.7C134.32 23.8867 134.687 24.1467 134.967 24.48C135.247 24.8133 135.44 25.2133 135.547 25.68C135.667 26.1333 135.727 26.64 135.727 27.2V34H134.027V27C134.027 26.36 133.84 25.8533 133.467 25.48C133.093 25.1067 132.58 24.92 131.927 24.92C131.407 24.92 130.953 25 130.567 25.16C130.193 25.32 129.88 25.5467 129.627 25.84C129.373 26.1333 129.18 26.48 129.047 26.88C128.927 27.2667 128.867 27.6933 128.867 28.16V34H127.167V23.66ZM145.646 21.8H143.946V19.72H145.646V21.8ZM143.946 23.66H145.646V34H143.946V23.66ZM148.28 23.66H149.88V25.3H149.92C150.627 24.0467 151.747 23.42 153.28 23.42C153.96 23.42 154.527 23.5133 154.98 23.7C155.433 23.8867 155.8 24.1467 156.08 24.48C156.36 24.8133 156.553 25.2133 156.66 25.68C156.78 26.1333 156.84 26.64 156.84 27.2V34H155.14V27C155.14 26.36 154.953 25.8533 154.58 25.48C154.207 25.1067 153.693 24.92 153.04 24.92C152.52 24.92 152.067 25 151.68 25.16C151.307 25.32 150.993 25.5467 150.74 25.84C150.487 26.1333 150.293 26.48 150.16 26.88C150.04 27.2667 149.98 27.6933 149.98 28.16V34H148.28V23.66ZM175.2 34H173.4L171.3 25.78H171.26L169.18 34H167.34L164.02 23.66H165.9L168.24 32.12H168.28L170.36 23.66H172.22L174.38 32.12H174.42L176.74 23.66H178.5L175.2 34ZM181.916 21.8H180.216V19.72H181.916V21.8ZM180.216 23.66H181.916V34H180.216V23.66ZM186.91 23.66H188.97V25.16H186.91V31.58C186.91 31.78 186.923 31.94 186.95 32.06C186.99 32.18 187.056 32.2733 187.15 32.34C187.243 32.4067 187.37 32.4533 187.53 32.48C187.703 32.4933 187.923 32.5 188.19 32.5H188.97V34H187.67C187.23 34 186.85 33.9733 186.53 33.92C186.223 33.8533 185.97 33.74 185.77 33.58C185.583 33.42 185.443 33.1933 185.35 32.9C185.256 32.6067 185.21 32.22 185.21 31.74V25.16H183.45V23.66H185.21V20.56H186.91V23.66ZM190.858 19.72H192.558V25.18H192.598C192.731 24.86 192.918 24.5933 193.158 24.38C193.398 24.1533 193.665 23.9733 193.958 23.84C194.265 23.6933 194.578 23.5867 194.898 23.52C195.231 23.4533 195.551 23.42 195.858 23.42C196.538 23.42 197.105 23.5133 197.558 23.7C198.011 23.8867 198.378 24.1467 198.658 24.48C198.938 24.8133 199.131 25.2133 199.238 25.68C199.358 26.1333 199.418 26.64 199.418 27.2V34H197.718V27C197.718 26.36 197.531 25.8533 197.158 25.48C196.785 25.1067 196.271 24.92 195.618 24.92C195.098 24.92 194.645 25 194.258 25.16C193.885 25.32 193.571 25.5467 193.318 25.84C193.065 26.1333 192.871 26.48 192.738 26.88C192.618 27.2667 192.558 27.6933 192.558 28.16V34H190.858V19.72ZM210.278 28.1H215.118L212.738 21.44H212.698L210.278 28.1ZM211.698 19.72H213.798L219.378 34H217.278L215.718 29.7H209.678L208.078 34H206.138L211.698 19.72ZM220.567 23.66H222.267V25.06H222.307C222.587 24.4867 223.027 24.0733 223.627 23.82C224.227 23.5533 224.887 23.42 225.607 23.42C226.407 23.42 227.1 23.5667 227.687 23.86C228.287 24.1533 228.78 24.5533 229.167 25.06C229.567 25.5533 229.867 26.1267 230.067 26.78C230.267 27.4333 230.367 28.1267 230.367 28.86C230.367 29.5933 230.267 30.2867 230.067 30.94C229.88 31.5933 229.587 32.1667 229.187 32.66C228.8 33.14 228.307 33.52 227.707 33.8C227.12 34.08 226.433 34.22 225.647 34.22C225.393 34.22 225.107 34.1933 224.787 34.14C224.48 34.0867 224.173 34 223.867 33.88C223.56 33.76 223.267 33.6 222.987 33.4C222.72 33.1867 222.493 32.9267 222.307 32.62H222.267V37.94H220.567V23.66ZM228.567 28.74C228.567 28.26 228.5 27.7933 228.367 27.34C228.247 26.8733 228.053 26.46 227.787 26.1C227.533 25.74 227.2 25.4533 226.787 25.24C226.387 25.0267 225.913 24.92 225.367 24.92C224.793 24.92 224.307 25.0333 223.907 25.26C223.507 25.4867 223.18 25.7867 222.927 26.16C222.673 26.52 222.487 26.9333 222.367 27.4C222.26 27.8667 222.207 28.34 222.207 28.82C222.207 29.3267 222.267 29.82 222.387 30.3C222.507 30.7667 222.693 31.18 222.947 31.54C223.213 31.9 223.553 32.1933 223.967 32.42C224.38 32.6333 224.88 32.74 225.467 32.74C226.053 32.74 226.54 32.6267 226.927 32.4C227.327 32.1733 227.647 31.8733 227.887 31.5C228.127 31.1267 228.3 30.7 228.407 30.22C228.513 29.74 228.567 29.2467 228.567 28.74ZM232.422 23.66H234.122V25.06H234.162C234.442 24.4867 234.882 24.0733 235.482 23.82C236.082 23.5533 236.742 23.42 237.462 23.42C238.262 23.42 238.955 23.5667 239.542 23.86C240.142 24.1533 240.635 24.5533 241.022 25.06C241.422 25.5533 241.722 26.1267 241.922 26.78C242.122 27.4333 242.222 28.1267 242.222 28.86C242.222 29.5933 242.122 30.2867 241.922 30.94C241.735 31.5933 241.442 32.1667 241.042 32.66C240.655 33.14 240.162 33.52 239.562 33.8C238.975 34.08 238.289 34.22 237.502 34.22C237.249 34.22 236.962 34.1933 236.642 34.14C236.335 34.0867 236.029 34 235.722 33.88C235.415 33.76 235.122 33.6 234.842 33.4C234.575 33.1867 234.349 32.9267 234.162 32.62H234.122V37.94H232.422V23.66ZM240.422 28.74C240.422 28.26 240.355 27.7933 240.222 27.34C240.102 26.8733 239.909 26.46 239.642 26.1C239.389 25.74 239.055 25.4533 238.642 25.24C238.242 25.0267 237.769 24.92 237.222 24.92C236.649 24.92 236.162 25.0333 235.762 25.26C235.362 25.4867 235.035 25.7867 234.782 26.16C234.529 26.52 234.342 26.9333 234.222 27.4C234.115 27.8667 234.062 28.34 234.062 28.82C234.062 29.3267 234.122 29.82 234.242 30.3C234.362 30.7667 234.549 31.18 234.802 31.54C235.069 31.9 235.409 32.1933 235.822 32.42C236.235 32.6333 236.735 32.74 237.322 32.74C237.909 32.74 238.395 32.6267 238.782 32.4C239.182 32.1733 239.502 31.8733 239.742 31.5C239.982 31.1267 240.155 30.7 240.262 30.22C240.369 29.74 240.422 29.2467 240.422 28.74ZM244.318 19.72H246.018V34H244.318V19.72ZM255.831 27.84C255.804 27.44 255.711 27.06 255.551 26.7C255.404 26.34 255.198 26.0333 254.931 25.78C254.678 25.5133 254.371 25.3067 254.011 25.16C253.664 25 253.278 24.92 252.851 24.92C252.411 24.92 252.011 25 251.651 25.16C251.304 25.3067 251.004 25.5133 250.751 25.78C250.498 26.0467 250.298 26.36 250.151 26.72C250.004 27.0667 249.918 27.44 249.891 27.84H255.831ZM257.471 30.72C257.244 31.88 256.744 32.7533 255.971 33.34C255.198 33.9267 254.224 34.22 253.051 34.22C252.224 34.22 251.504 34.0867 250.891 33.82C250.291 33.5533 249.784 33.18 249.371 32.7C248.958 32.22 248.644 31.6467 248.431 30.98C248.231 30.3133 248.118 29.5867 248.091 28.8C248.091 28.0133 248.211 27.2933 248.451 26.64C248.691 25.9867 249.024 25.42 249.451 24.94C249.891 24.46 250.404 24.0867 250.991 23.82C251.591 23.5533 252.244 23.42 252.951 23.42C253.871 23.42 254.631 23.6133 255.231 24C255.844 24.3733 256.331 24.8533 256.691 25.44C257.064 26.0267 257.318 26.6667 257.451 27.36C257.598 28.0533 257.658 28.7133 257.631 29.34H249.891C249.878 29.7933 249.931 30.2267 250.051 30.64C250.171 31.04 250.364 31.4 250.631 31.72C250.898 32.0267 251.238 32.2733 251.651 32.46C252.064 32.6467 252.551 32.74 253.111 32.74C253.831 32.74 254.418 32.5733 254.871 32.24C255.338 31.9067 255.644 31.4 255.791 30.72H257.471Z" fill="#1C1C1E"/>
<path d="M43.4217 26.1041C43.3961 23.0646 45.9248 21.5576 46.027 21.5065C44.5966 19.412 42.3744 19.1311 41.6082 19.1055C39.7436 18.9012 37.9301 20.2294 36.985 20.2294C36.0144 20.2294 34.5585 19.1311 32.9749 19.1566C30.9571 19.1822 29.0414 20.3571 28.0197 22.1706C25.8742 25.8742 27.4834 31.3402 29.5267 34.3542C30.5484 35.8356 31.7489 37.4703 33.3325 37.4193C34.865 37.3682 35.4525 36.4487 37.2915 36.4487C39.1306 36.4487 39.667 37.4193 41.2761 37.3937C42.9364 37.3682 43.9581 35.9123 44.9542 34.4308C46.1547 32.7451 46.6144 31.0848 46.64 31.0082C46.6144 30.9571 43.4472 29.7566 43.4217 26.1041Z" fill="#1C1C1E"/>
<path d="M40.3822 17.1133C41.1995 16.066 41.787 14.6612 41.6082 13.2309C40.4077 13.2819 38.9007 14.0482 38.0578 15.0699C37.2915 15.9639 36.6019 17.4198 36.7807 18.7991C38.16 18.9268 39.5393 18.1349 40.3822 17.1133Z" fill="#1C1C1E"/>
</svg>
